<svg enable-background="new 0 0 128 128" viewBox="0 0 128 128" xmlns="http://www.w3.org/2000/svg" xmlns:xlink="http://www.w3.org/1999/xlink"><radialGradient id="a" cx="64" cy="-1730.6666" gradientTransform="matrix(1 0 0 -1 0 -1666.6666)" gradientUnits="userSpaceOnUse" r="58.8348"><stop offset=".5" stop-color="#fde030"/><stop offset=".9188" stop-color="#f7c02b"/><stop offset="1" stop-color="#f4a223"/></radialGradient><linearGradient id="b"><stop offset=".0323"/><stop offset="1" stop-color="#424242"/></linearGradient><radialGradient id="c" cx="63.9723" cy="88.4087" gradientTransform="matrix(1 0 0 .4617 0 47.5867)" gradientUnits="userSpaceOnUse" r="33.8219" xlink:href="#b"/><radialGradient id="d" cx="36.0776" cy="33.3191" gradientTransform="matrix(1 .00626151 -.00425225 .6791 1.6669 10.585)" gradientUnits="userSpaceOnUse" r="22.067"><stop offset=".0323"/><stop offset=".9664" stop-color="#424242"/></radialGradient><radialGradient id="e" cx="58.82" cy="37.6176" gradientTransform="matrix(-1 .00626151 .00325101 .5192 149.7971 13.0701)" gradientUnits="userSpaceOnUse" r="20.4487" xlink:href="#b"/><linearGradient id="f"><stop offset=".4463" stop-color="#212121"/><stop offset=".7484" stop-color="#323232"/><stop offset=".9664" stop-color="#424242"/></linearGradient><linearGradient id="g" gradientUnits="userSpaceOnUse" x1="113.6633" x2="123.8348" xlink:href="#f" y1="52.1947" y2="52.1947"/><linearGradient id="h" gradientTransform="matrix(-1 0 0 1 -2.7925 0)" gradientUnits="userSpaceOnUse" x1="-17.1292" x2="-6.9577" xlink:href="#f" y1="52.1947" y2="52.1947"/><linearGradient id="i" gradientUnits="userSpaceOnUse" x1="64" x2="64" y1="20.8333" y2="56.8888"><stop offset=".5" stop-color="#fde030"/><stop offset="1" stop-color="#f7c02b"/></linearGradient><linearGradient id="j"><stop offset=".0001982868" stop-color="#b36e00"/><stop offset=".7126" stop-color="#c77b00" stop-opacity=".2874"/><stop offset="1" stop-color="#d18100" stop-opacity="0"/></linearGradient><radialGradient id="k" cx="58.3417" cy="82.8501" gradientTransform="matrix(.9622 .2722 -.3237 1.1443 29.0193 -27.8346)" gradientUnits="userSpaceOnUse" r="11.5074" xlink:href="#j"/><radialGradient id="l" cx="69.8381" cy="82.8501" gradientTransform="matrix(-.9622 .2722 .3237 1.1443 110.0701 -30.9638)" gradientUnits="userSpaceOnUse" r="11.5074" xlink:href="#j"/><path d="m64 6.25c-31.1 0-59.9 20.7-59.9 57.7 0 37.3 28.8 57.8 59.9 57.8s59.9-20 59.9-57.8c-.1-37.5-28.9-57.7-59.9-57.7z" fill="url(#a)"/><circle cx="34.56" cy="51.99" fill="#4fc3f7" r="22.96"/><circle cx="93.39" cy="51.99" fill="#4fc3f7" r="22.96"/><g fill="#e1f5fe"><path d="m36.17 28.65h3.59v38.44h-3.59z" transform="matrix(.7501 -.6614 .6614 .7501 -22.1729 37.0771)"/><path d="m21.66 36.63-6.24 5.82 25.42 28.84 6.24-5.83z"/><path d="m96.73 28.65h3.59v38.44h-3.59z" transform="matrix(.7501 -.6614 .6614 .7501 -7.0385 77.1248)"/><path d="m82.21 36.63-6.24 5.82 25.42 28.84 6.25-5.83z"/></g><path d="m96.68 86.83c.33-2.58-.58-5.39-2.1-7.43-.2-.27-.63-.14-.64.19-.07 1.71-.68 5.16-4.37 6.44-6.97 2.42-10.42-9.38-20.51-8.43-2.19.21-3.86 1.18-5.07 2.62-.01-.01-.02-.02-.02-.02-.01.01-.02.02-.02.02-1.21-1.44-2.88-2.42-5.07-2.62-10.1-.95-13.55 10.85-20.51 8.43-3.69-1.28-4.3-4.73-4.37-6.44-.01-.33-.44-.46-.64-.19-1.52 2.04-2.44 4.85-2.1 7.43.65 5 5.47 6.48 5.47 6.48-1.34 1.26-2.63 1.59-4.18 1.47-.5-.04-.82.56-.51.95 3.63 4.68 10.3 6.15 15.17 3.1-.29.94-.75 1.82-1.34 2.56-.24.31-.13.77.24.92 6.22 2.51 12.68 1.36 17.87-3.68 5.18 5.04 11.65 6.19 17.87 3.68.36-.15.48-.61.24-.92-.59-.74-1.05-1.62-1.34-2.56 4.86 3.05 11.54 1.58 15.17-3.1.31-.4-.01-.99-.51-.95-1.56.12-2.84-.21-4.18-1.47-.02 0 4.81-1.48 5.45-6.48z" fill="url(#c)"/><path d="m27.46 19.97c2.16 1.26 3.25 3.82 3.25 3.82s-3.09-2.29-8.14 1.07c-2.7 1.79-2.8 3.18-6.01 4.34-.36.13-.47.61-.18.87 1.76 1.56 3.74 2.87 5.95 3.68 3.7 1.36 7.47-.63 11.29-.75 5.12-.17 11.75 1.28 16.3 3.86 1.29-3.68 1.23-7.81-.16-11.45-1.26-3.29-3.59-6.15-6.54-8.07-.38-.25-.87.06-.81.51l.8 5.42c-2.3-3.49-5.91-5.59-10.12-5.45-1.72.06-3.95.39-5.62 1.23-.36.19-.36.71-.01.92z" fill="url(#d)"/><path d="m100.54 19.97c-2.16 1.26-3.25 3.82-3.25 3.82s3.09-2.29 8.14 1.07c2.7 1.79 2.8 3.18 6.01 4.34.36.13.47.61.18.87-1.76 1.56-3.74 2.87-5.95 3.68-3.7 1.36-7.47-.63-11.29-.75-5.12-.17-11.75 1.28-16.3 3.86-1.29-3.68-1.23-7.81.16-11.45 1.26-3.29 3.59-6.15 6.54-8.07.38-.25.87.06.81.51l-.8 5.42c2.3-3.49 5.91-5.59 10.12-5.45 1.72.06 3.95.39 5.62 1.23.36.19.36.71.01.92z" fill="url(#e)"/><path d="m34.56 34.37c9.71 0 17.62 7.9 17.62 17.62s-7.9 17.62-17.62 17.62-17.62-7.9-17.62-17.62 7.9-17.62 17.62-17.62m0-5.34c-12.68 0-22.96 10.28-22.96 22.96s10.28 22.96 22.96 22.96 22.96-10.28 22.96-22.96-10.28-22.96-22.96-22.96z" fill="#212121"/><path d="m93.39 34.37c9.71 0 17.62 7.9 17.62 17.62s-7.9 17.62-17.62 17.62-17.62-7.9-17.62-17.62 7.91-17.62 17.62-17.62m0-5.34c-12.68 0-22.96 10.28-22.96 22.96s10.28 22.96 22.96 22.96 22.96-10.28 22.96-22.96-10.28-22.96-22.96-22.96z" fill="#212121"/><path d="m115.17 59.44c1.02-2.91 5.68-4.38 7.92-4.93.71-.17 1.22-.81 1.22-1.54v-3.15c0-.85-.66-1.54-1.51-1.58-2.26-.11-6.39-.68-7.5-3.32-1.57-3.7-1.48 18.39-.13 14.52z" fill="url(#g)"/><path d="m72.39 42.8c-.01 0-.34 1.31-2.17 1.31-1.79 0-2.63-1.48-6.22-1.48s-4.43 1.48-6.22 1.48c-1.83 0-2.17-1.3-2.17-1.31-.56-.34-.25 6.07-.25 6.07.19.63 1.26 6.87 1.85 6.95 0 0 2.45-4.31 6.79-4.36s0 0 0 0c4.33.05 6.79 4.36 6.79 4.36.59-.08 1.66-6.32 1.85-6.95 0 0 .3-6.41-.25-6.07z" fill="#212121"/><path d="m12.83 59.44c-1.02-2.91-5.68-4.38-7.92-4.93-.71-.17-1.22-.81-1.22-1.54v-3.15c0-.85.66-1.54 1.51-1.58 2.26-.11 6.39-.68 7.5-3.32 1.57-3.7 1.48 18.39.13 14.52z" fill="url(#h)"/><path d="m72.57 61.58c-2.32-7.75-3.55-12.34-8.55-12.36-.01 0-.02 0-.03 0s-.02 0-.03 0c-4.99.01-6.22 4.61-8.55 12.36-2.8 9.32-12.15 16.01-7.48 22.32 1.68 2.26 4.01 2.22 5.43 2.58 1.4.36 4.18 6.84 10.6 6.84h.03s.02 0 .03 0c6.42 0 9.2-6.47 10.6-6.84 1.42-.37 3.75-.32 5.43-2.58 4.67-6.32-4.68-13-7.48-22.32z" fill="url(#i)"/><path d="m57.25 68.5c1.75-3.71 2.21-10.29 2.21-10.29s-1.63 1.81-4.95 6.62c-.67.98-1.98 3.08-2.75 4.37-3.06 5.17-7.09 10.27-3.81 14.69 1.68 2.26 4.01 2.22 5.43 2.58.43.11.99.79 1.73 1.68s-2.19-3.91-1.73-7.91 2.12-8.03 3.87-11.74z" fill="url(#k)"/><path d="m70.78 68.5c-1.75-3.71-2.21-10.29-2.21-10.29s1.63 1.81 4.95 6.62c.67.98 1.98 3.08 2.75 4.37 3.06 5.17 7.09 10.27 3.81 14.69-1.68 2.26-4.01 2.22-5.43 2.58-.43.11-.99.79-1.73 1.68s2.19-3.91 1.73-7.91-2.12-8.03-3.87-11.74z" fill="url(#l)"/></svg>